<svg width="200px" height="200px" xmlns="http://www.w3.org/2000/svg" viewBox="0 0 100 100" preserveAspectRatio="xMidYMid" class="lds-wedges" style="animation-play-state: running; animation-delay: 0s; background: none;"><g transform="translate(50,50)" style="animation-play-state: running; animation-delay: 0s;"><g ng-attr-transform="scale({{config.scale}})" transform="scale(0.7)" style="animation-play-state: running; animation-delay: 0s;"><g transform="translate(-50,-50)" style="animation-play-state: running; animation-delay: 0s;"><g transform="rotate(90 50 50)" style="animation-play-state: running; animation-delay: 0s;"><animateTransform attributeName="transform" type="rotate" calcMode="linear" values="0 50 50;360 50 50" keyTimes="0;1" dur="1s" begin="0s" repeatCount="indefinite" style="animation-play-state: running; animation-delay: 0s;"></animateTransform><path ng-attr-fill-opacity="{{config.opacity}}" ng-attr-fill="{{config.c1}}" d="M50 50L50 0A50 50 0 0 1 100 50Z" fill-opacity="0.8" fill="#4996d1" style="animation-play-state: running; animation-delay: 0s;"></path></g><g transform="rotate(67.5 50 50)" style="animation-play-state: running; animation-delay: 0s;"><animateTransform attributeName="transform" type="rotate" calcMode="linear" values="0 50 50;360 50 50" keyTimes="0;1" dur="1.3333333333333333s" begin="0s" repeatCount="indefinite" style="animation-play-state: running; animation-delay: 0s;"></animateTransform><path ng-attr-fill-opacity="{{config.opacity}}" ng-attr-fill="{{config.c2}}" d="M50 50L50 0A50 50 0 0 1 100 50Z" transform="rotate(90 50 50)" fill-opacity="0.8" fill="#d41217" style="animation-play-state: running; animation-delay: 0s;"></path></g><g transform="rotate(45 50 50)" style="animation-play-state: running; animation-delay: 0s;"><animateTransform attributeName="transform" type="rotate" calcMode="linear" values="0 50 50;360 50 50" keyTimes="0;1" dur="2s" begin="0s" repeatCount="indefinite" style="animation-play-state: running; animation-delay: 0s;"></animateTransform><path ng-attr-fill-opacity="{{config.opacity}}" ng-attr-fill="{{config.c3}}" d="M50 50L50 0A50 50 0 0 1 100 50Z" transform="rotate(180 50 50)" fill-opacity="0.8" fill="#ffffff" style="animation-play-state: running; animation-delay: 0s;"></path></g><g transform="rotate(22.5 50 50)" style="animation-play-state: running; animation-delay: 0s;"><animateTransform attributeName="transform" type="rotate" calcMode="linear" values="0 50 50;360 50 50" keyTimes="0;1" dur="4s" begin="0s" repeatCount="indefinite" style="animation-play-state: running; animation-delay: 0s;"></animateTransform><path ng-attr-fill-opacity="{{config.opacity}}" ng-attr-fill="{{config.c4}}" d="M50 50L50 0A50 50 0 0 1 100 50Z" transform="rotate(270 50 50)" fill-opacity="0.8" fill="#4996d1" style="animation-play-state: running; animation-delay: 0s;"></path></g></g></g></g></svg>